<svg xmlns="http://www.w3.org/2000/svg" viewBox="0 0 96 96" role="img" aria-label="GymPact">
  <defs>
    <linearGradient id="g" x1="12" y1="8" x2="82" y2="88" gradientUnits="userSpaceOnUse">
      <stop stop-color="#9BFF62"/>
      <stop offset="1" stop-color="#41C85A"/>
    </linearGradient>
  </defs>
  <rect width="96" height="96" rx="23" fill="#070909"/>
  <path d="M48 10 76 26v34L48 77 20 60V26L48 10Z" fill="none" stroke="url(#g)" stroke-width="5" stroke-linejoin="round"/>
  <path d="M29 43h-7v10h7m38-10h7v10h-7M18 39v18m7-22v26m46-26v26m7-22v18M31 48h34" fill="none" stroke="url(#g)" stroke-width="4" stroke-linecap="round"/>
  <path d="M36 35h19c5 0 8 3 8 8s-3 8-8 8h-7v13h-8V43h15" fill="none" stroke="#F7FFF4" stroke-width="5" stroke-linecap="round" stroke-linejoin="round"/>
</svg>
